<?xml version="1.0" standalone="no"?>
<!DOCTYPE svg PUBLIC "-//W3C//DTD SVG 20010904//EN"
 "http://www.w3.org/TR/2001/REC-SVG-20010904/DTD/svg10.dtd">
<svg version="1.0" xmlns="http://www.w3.org/2000/svg"
 width="797.000000pt" height="600.000000pt" viewBox="0 0 797.000000 600.000000"
 preserveAspectRatio="xMidYMid meet">

<g transform="translate(0.000000,600.000000) scale(0.100000,-0.100000)"
fill="#000000" stroke="none">
<path d="M2835 5839 c-61 -15 -95 -54 -159 -186 -6 -12 -23 -29 -38 -37 -25
-15 -30 -15 -80 7 -84 38 -108 47 -126 47 -9 0 -35 11 -58 23 -147 80 -228
117 -253 117 -17 0 -58 -19 -105 -50 -42 -27 -79 -50 -81 -50 -3 0 -66 -30
-140 -66 -130 -64 -185 -106 -185 -143 0 -54 64 -100 260 -186 116 -51 290
-136 295 -145 3 -6 -36 -92 -45 -100 -11 -8 -22 -62 -24 -115 -2 -85 25 -73
227 97 27 22 49 39 51 37 20 -28 28 -128 33 -399 4 -271 3 -311 -11 -339 -9
-17 -20 -31 -24 -31 -5 0 -24 16 -43 36 -59 62 -97 75 -217 76 -102 1 -110 0
-167 -30 -33 -18 -74 -45 -90 -60 -68 -64 -94 -66 -119 -9 -58 129 -150 386
-172 475 -49 207 -121 294 -271 329 -41 10 -121 -2 -139 -20 -4 -4 -16 -7 -26
-7 -10 0 -18 -4 -18 -10 0 -5 -6 -10 -14 -10 -19 0 -106 -87 -106 -106 0 -8
-3 -14 -8 -14 -12 0 -32 -77 -32 -127 0 -46 49 -204 84 -272 9 -16 16 -32 16
-35 0 -3 -39 34 -88 82 -155 157 -213 198 -318 223 -41 10 -62 10 -100 0 -163
-42 -234 -127 -234 -280 0 -44 5 -83 10 -86 6 -3 10 -15 10 -26 0 -30 47 -97
124 -178 63 -66 68 -73 41 -65 -38 11 -187 6 -199 -7 -6 -5 -18 -9 -28 -9 -10
0 -18 -4 -18 -10 0 -5 -6 -10 -13 -10 -22 0 -114 -94 -131 -134 -25 -59 -21
-164 8 -229 31 -70 75 -105 223 -178 91 -44 124 -66 128 -82 10 -39 -2 -431
-15 -487 -17 -75 -24 -278 -11 -307 6 -13 16 -35 23 -49 33 -69 139 -134 219
-134 25 0 67 7 93 16 57 20 146 99 170 151 l17 38 62 0 c56 0 67 4 105 34 51
39 72 77 72 126 0 23 5 35 14 35 47 0 83 -51 66 -95 -6 -15 -10 -52 -10 -84 0
-31 -4 -61 -9 -67 -20 -20 -39 -320 -22 -337 6 -6 11 -18 11 -28 0 -31 77
-106 127 -123 108 -37 241 0 302 84 42 59 72 145 74 213 2 45 5 56 16 52 114
-44 250 -11 329 80 78 88 81 108 85 635 3 294 8 467 16 490 7 22 41 64 92 115
45 44 93 97 107 117 24 37 50 52 39 23 -4 -8 -2 -17 3 -20 14 -8 13 -128 -1
-142 -7 -7 -9 -44 -5 -104 7 -137 21 -222 58 -351 9 -29 11 -101 9 -223 -10
-523 -5 -776 18 -795 3 -3 11 -14 17 -25 17 -32 91 -83 136 -96 93 -24 229 29
276 109 23 41 27 59 32 176 5 115 7 128 18 103 9 -22 10 -55 2 -133 -5 -57 -7
-145 -4 -196 3 -51 1 -106 -4 -123 l-8 -30 -185 -13 c-124 -8 -284 -11 -494
-6 -170 3 -337 6 -370 6 -73 0 -143 -11 -151 -23 -3 -5 -16 -9 -30 -9 -13 0
-24 -4 -24 -10 0 -5 -9 -10 -20 -10 -11 0 -20 -4 -20 -10 0 -5 -6 -10 -13 -10
-43 0 -167 -167 -167 -224 0 -12 -5 -27 -11 -33 -18 -18 1 -246 22 -259 18
-11 0 -117 -24 -140 -13 -14 -7 -150 8 -180 40 -81 175 -197 243 -209 45 -7
66 -44 49 -86 -5 -13 -10 -87 -10 -164 -1 -157 9 -186 81 -253 57 -53 90 -66
162 -65 115 0 208 61 256 167 35 78 37 110 15 255 -11 74 -18 138 -15 143 3 4
71 5 152 2 119 -5 150 -9 160 -23 11 -13 12 -64 8 -251 -3 -129 -7 -246 -8
-260 -3 -52 14 -147 35 -189 26 -52 70 -83 151 -107 114 -32 233 1 309 85 47
52 63 84 78 158 11 53 10 70 -6 139 -18 76 -38 410 -25 425 3 4 69 9 148 12
137 6 143 5 163 -16 15 -16 18 -29 13 -47 -19 -70 -41 -601 -26 -634 42 -92
62 -123 102 -157 94 -82 204 -112 310 -85 115 30 177 81 234 193 38 76 44 148
36 438 -4 143 -6 271 -3 285 5 25 5 25 122 25 85 0 123 -4 135 -14 13 -11 16
-34 16 -127 0 -64 4 -115 10 -119 6 -3 10 -13 10 -21 0 -8 6 -22 13 -30 52
-66 111 -98 178 -99 62 0 94 -27 83 -70 -15 -67 -3 -268 17 -281 5 -3 9 -13 9
-24 0 -25 85 -117 129 -139 20 -10 60 -24 88 -31 146 -34 314 57 386 210 30
62 31 70 32 205 0 77 -4 231 -8 343 l-8 202 148 0 c103 0 153 -4 161 -12 15
-15 16 -74 2 -83 -14 -9 -13 -210 1 -254 31 -97 78 -154 159 -193 54 -26 147
-29 201 -5 50 21 111 77 150 139 28 43 33 61 37 130 3 44 0 103 -6 132 -6 28
-14 69 -17 92 l-6 41 76 6 c88 6 145 34 195 94 53 65 60 108 59 408 0 266 -10
410 -31 450 -36 67 -126 145 -167 145 -11 0 -23 5 -26 10 -4 6 -221 10 -619
10 -442 0 -619 3 -637 12 -22 10 -24 17 -24 82 0 39 -4 85 -8 101 l-9 30 29
-27 c15 -15 54 -39 87 -54 51 -23 68 -26 130 -22 118 8 182 53 235 168 23 51
26 72 34 275 13 279 13 349 3 515 -8 122 -7 142 12 205 34 113 44 189 51 379
l6 179 85 -64 c100 -75 125 -101 136 -143 4 -17 9 -263 10 -547 l2 -516 25
-44 c27 -50 98 -103 160 -120 22 -6 71 -9 109 -7 53 2 71 -1 78 -12 5 -8 9
-51 8 -95 -1 -95 22 -146 88 -193 80 -58 101 -65 184 -60 97 6 154 36 199 106
64 100 72 179 46 427 -8 77 -15 158 -15 181 l0 41 68 6 c37 3 91 15 121 27 29
11 55 19 56 18 32 -46 35 -58 35 -135 0 -45 5 -85 10 -88 6 -3 10 -13 10 -21
0 -19 55 -102 84 -127 45 -39 140 -77 191 -77 61 0 137 34 182 81 88 94 112
219 73 389 -16 70 -23 143 -27 281 -3 102 -3 197 0 211 5 20 29 37 106 78 191
100 279 213 269 344 -6 74 -24 110 -80 169 -62 64 -94 81 -168 89 -36 4 -83
10 -105 13 l-40 6 57 60 c113 118 158 274 110 381 -27 62 -83 121 -134 142
-24 10 -51 22 -60 27 -38 20 -101 7 -218 -44 -20 -9 -68 -48 -109 -86 -40 -39
-85 -78 -101 -87 -15 -10 -45 -39 -66 -65 -21 -27 -40 -47 -41 -45 -2 2 22 59
53 127 50 108 58 134 62 200 5 89 -13 141 -74 208 -40 45 -66 61 -135 85 -72
25 -92 22 -215 -36 -33 -15 -68 -49 -101 -98 -32 -48 -73 -152 -73 -188 0 -11
-4 -24 -10 -27 -5 -3 -10 -19 -10 -35 0 -16 -4 -32 -10 -35 -5 -3 -10 -17 -10
-30 0 -13 -4 -27 -10 -30 -5 -3 -10 -19 -10 -35 0 -16 -4 -32 -10 -35 -5 -3
-10 -15 -10 -26 0 -10 -4 -28 -10 -39 -5 -11 -14 -29 -20 -40 -5 -11 -10 -29
-10 -39 0 -11 -4 -23 -10 -26 -5 -3 -10 -16 -10 -29 0 -33 -22 -74 -47 -87
-19 -10 -27 -7 -67 28 -47 41 -142 92 -212 113 -40 12 -108 10 -169 -6 -34 -8
-114 -59 -132 -85 -7 -9 -26 -22 -42 -27 -24 -8 -31 -7 -35 5 -3 8 -6 179 -6
379 l0 364 43 -21 c23 -12 51 -30 62 -40 11 -10 58 -41 105 -69 76 -46 85 -49
99 -35 34 34 12 154 -33 179 -38 21 -97 92 -84 100 2 1 48 19 103 41 271 105
475 223 475 276 0 19 -39 60 -72 76 -55 25 -167 84 -251 131 -21 12 -43 22
-50 22 -8 0 -37 23 -66 50 -29 28 -59 50 -67 50 -14 0 -71 -30 -114 -60 -23
-16 -86 -46 -210 -102 -25 -11 -62 -29 -83 -39 -45 -22 -80 -24 -94 -6 -6 6
-29 48 -52 92 -24 44 -50 88 -59 97 -15 14 -54 18 -271 27 -139 6 -392 11
-562 11 l-308 0 -26 -24 c-23 -21 -26 -30 -20 -58 10 -46 83 -178 154 -278 57
-80 84 -151 67 -178 -6 -10 -132 8 -154 22 -7 4 -67 12 -135 17 -105 8 -128 8
-153 -6 -63 -32 -94 -12 -94 63 0 31 10 54 50 108 61 85 64 90 113 140 33 35
37 45 28 62 -7 14 -7 28 1 50 10 25 9 34 -5 56 l-17 26 -503 -1 c-276 -1 -520
-5 -542 -10z m-663 -165 c51 -45 164 -100 299 -144 l105 -35 -99 -112 c-61
-69 -108 -113 -119 -113 -19 0 -202 87 -367 174 -46 24 -101 47 -122 50 -22 3
-39 11 -39 16 0 5 36 28 80 50 91 44 196 115 204 136 8 20 14 18 58 -22z
m1566 -15 c-13 -23 -33 -48 -46 -57 -12 -8 -31 -34 -42 -58 -10 -24 -39 -70
-63 -102 -24 -31 -56 -77 -71 -100 -21 -33 -41 -50 -84 -69 -54 -24 -71 -26
-287 -34 -126 -4 -293 -5 -370 -2 -77 2 -175 1 -217 -4 -43 -5 -78 -8 -78 -7
0 2 28 29 61 61 56 53 110 114 211 241 21 26 54 75 74 110 l37 62 449 0 449 0
-23 -41z m1360 -1 c29 -66 205 -296 280 -366 l67 -64 -435 6 c-483 5 -511 9
-572 69 -58 57 -288 369 -288 390 0 4 209 7 465 7 l464 0 19 -42z m915 -108
c73 -40 89 -60 46 -60 -11 0 -54 -17 -97 -38 -42 -22 -120 -55 -172 -75 -52
-20 -124 -55 -160 -77 -50 -31 -67 -37 -75 -27 -6 6 -45 52 -86 102 -41 49
-83 97 -94 107 -11 9 -18 18 -15 21 3 2 59 26 125 52 134 54 229 99 263 126
23 18 24 17 105 -35 45 -29 117 -72 160 -96z m-1868 -331 c400 -59 819 -343
1015 -691 28 -48 51 -93 52 -100 2 -7 9 -19 16 -26 12 -13 16 -33 13 -59 -1
-7 5 -13 14 -13 8 0 15 -4 15 -10 0 -5 -9 -10 -20 -10 -11 0 -23 -7 -26 -15
-4 -8 -10 -13 -15 -10 -4 3 -6 12 -3 19 3 8 1 17 -5 21 -6 3 -11 15 -11 26 0
10 -4 19 -9 19 -4 0 0 -30 11 -67 25 -89 34 -305 19 -433 -14 -108 -64 -266
-121 -380 -43 -87 -159 -222 -294 -345 -104 -95 -165 -136 -265 -182 -223
-102 -341 -130 -586 -139 -197 -6 -275 -14 -275 -25 0 -5 10 -9 23 -9 21 -1
22 -1 3 -15 -23 -17 -121 -21 -131 -5 -4 6 -10 8 -15 5 -5 -3 -11 -1 -14 4 -3
5 -31 12 -61 16 -30 3 -53 10 -51 14 3 4 -7 8 -22 9 l-27 1 28 -15 c35 -19 35
-34 -1 -34 -23 0 -32 -7 -45 -36 -10 -19 -12 -32 -6 -28 8 4 9 0 4 -15 -5 -17
-3 -20 12 -14 16 6 16 5 4 -10 -7 -9 -17 -15 -21 -12 -16 10 -30 -108 -34
-283 -1 -93 -6 -136 -15 -145 -11 -10 -12 -8 -7 10 4 13 3 31 -3 40 -10 17
-10 17 -11 1 0 -24 -36 -41 -73 -35 -27 4 -28 3 -11 -10 10 -7 23 -12 29 -10
10 4 35 -16 35 -28 0 -3 -21 -5 -47 -3 -65 4 -76 26 -69 133 3 44 7 175 8 290
3 182 5 215 21 238 9 15 15 27 12 27 -14 0 -21 2 -31 11 -7 5 -35 12 -64 15
-30 3 -58 8 -63 11 -5 3 -8 0 -5 -8 2 -8 17 -15 31 -17 15 -2 25 -7 22 -12 -7
-12 -35 -2 -62 23 -24 22 -22 40 4 30 11 -4 14 -3 9 5 -4 7 -9 22 -11 34 -3
12 -19 37 -37 55 -26 27 -34 30 -41 18 -4 -8 -7 -22 -5 -32 2 -12 -7 -19 -32
-24 -67 -14 -71 -27 -70 -256 2 -234 -1 -245 -72 -264 -34 -9 -48 -8 -75 5
-59 28 -63 49 -52 262 5 104 9 273 7 376 -1 136 1 191 10 200 18 18 15 88 -7
151 -18 52 -25 89 -51 292 -10 83 2 261 24 360 34 145 96 309 155 410 71 119
172 247 244 308 105 91 284 218 357 256 76 40 247 103 330 123 115 27 290 29
445 7z m-1006 -105 l35 -6 -42 -18 c-97 -44 -277 -215 -408 -390 -61 -80 -164
-272 -179 -333 -19 -74 -25 -18 -26 235 -1 150 -2 328 -3 395 -1 101 2 123 14
126 23 6 571 -2 609 -9z m1920 2 c-2 -2 -29 -5 -59 -7 -30 -1 -59 -5 -64 -7
-14 -8 -108 -11 -131 -5 l-20 6 20 8 c20 8 262 13 254 5z m1707 -145 c57 -26
74 -54 74 -121 0 -67 -8 -81 -46 -79 -16 1 -42 -3 -57 -10 -28 -11 -29 -14
-23 -59 12 -94 12 -94 -10 -103 -15 -5 -33 -2 -55 10 -32 17 -34 22 -37 79 -3
56 -5 63 -33 79 -29 17 -31 21 -26 65 7 84 77 158 147 158 14 0 44 -9 66 -19z
m-5449 -11 c40 -24 73 -87 73 -139 0 -31 -8 -49 -40 -87 -23 -27 -51 -71 -63
-97 -21 -45 -24 -48 -57 -45 l-35 3 0 73 c0 72 0 72 -27 72 -37 0 -60 38 -66
107 -4 49 -2 57 24 85 16 16 38 34 49 38 37 16 109 11 142 -10z m-656 -286
c17 -8 132 -115 255 -237 123 -122 236 -228 251 -235 29 -16 74 -10 110 13 31
21 30 56 -8 171 -18 52 -30 96 -28 98 2 1 38 11 79 22 71 18 76 21 96 61 31
61 28 65 150 -266 67 -184 88 -217 156 -252 34 -17 37 -23 43 -75 5 -34 16
-66 29 -82 12 -15 33 -44 46 -66 29 -47 74 -76 121 -76 33 0 37 -3 43 -31 3
-17 6 -208 6 -423 -1 -360 -2 -393 -18 -412 -43 -51 -116 -67 -177 -38 -57 27
-69 55 -75 181 l-5 112 -50 52 c-27 29 -50 57 -50 63 0 15 -6 14 -105 -9 -56
-12 -121 -19 -190 -19 -98 0 -110 2 -173 32 -47 23 -71 40 -77 58 -14 36 -13
57 3 48 8 -5 8 -2 -2 9 -7 9 -17 17 -21 17 -8 0 -23 -199 -24 -315 l-1 -60
-47 -3 c-34 -2 -49 1 -50 10 -1 7 -2 90 -3 183 0 94 -3 179 -7 191 -11 36 -36
89 -49 106 -13 17 -16 16 -53 -5 -42 -23 -70 -78 -56 -107 12 -22 17 -439 6
-437 -5 1 -12 -13 -16 -30 -9 -40 -25 -60 -61 -79 -18 -9 -26 -20 -23 -29 4
-9 -3 -16 -20 -21 -14 -3 -26 -10 -26 -14 0 -12 56 -22 81 -15 16 5 19 4 14
-5 -13 -21 -84 -5 -116 26 -56 54 -61 133 -14 244 22 53 24 69 29 368 l6 313
-28 26 c-46 44 -129 77 -197 77 -66 1 -132 29 -159 68 -9 12 -16 39 -16 60 0
66 94 134 158 115 9 -3 82 -31 160 -62 173 -67 221 -75 284 -47 80 35 82 62
11 149 -19 24 -33 48 -31 55 3 18 -20 58 -34 58 -6 0 -3 -12 7 -27 10 -16 -12
1 -49 36 -68 67 -79 92 -23 51 25 -18 28 -19 15 -4 -10 11 -19 36 -20 55 -3
36 -45 96 -69 99 -37 6 -58 -1 -53 -15 11 -29 -12 -15 -63 38 -62 64 -73 84
-73 137 0 34 6 48 34 76 30 30 40 34 85 34 29 0 66 -7 82 -16z m6771 -24 c30
-30 39 -46 36 -66 -2 -17 -10 -28 -22 -30 -10 -1 -25 -12 -33 -24 -23 -32 -54
-59 -100 -86 -45 -27 -162 -163 -195 -228 -12 -23 -22 -55 -22 -71 -1 -17 -16
-54 -35 -83 l-33 -52 21 -34 c12 -19 28 -37 37 -40 53 -20 161 9 319 85 121
59 171 60 221 7 40 -45 45 -88 14 -148 -18 -35 -80 -84 -80 -63 0 4 -11 -5
-25 -20 -30 -31 -40 -35 -26 -9 9 17 6 18 -37 15 -68 -6 -226 -63 -173 -63 7
0 10 -4 6 -9 -3 -5 -1 -12 4 -16 7 -4 6 -15 -1 -33 -6 -15 -13 -103 -16 -197
-3 -98 -8 -159 -13 -145 -4 14 -7 42 -8 62 -1 20 -5 40 -11 43 -6 4 -7 -69 -4
-202 4 -162 9 -211 20 -223 12 -12 14 -11 14 9 0 20 2 21 15 11 23 -19 19 -98
-7 -150 -31 -59 -66 -84 -107 -75 -17 4 -29 10 -26 14 2 5 -4 16 -15 26 -21
19 -29 8 -9 -12 7 -7 7 -13 0 -17 -16 -10 -31 28 -33 81 0 26 5 120 11 208 7
88 10 201 6 252 -6 81 -10 96 -34 124 -27 30 -30 31 -63 20 -30 -10 -93 -61
-76 -61 13 0 -23 -95 -48 -127 -33 -44 -82 -68 -179 -88 -81 -17 -96 -16 -293
7 -72 8 -96 8 -105 -1 -9 -10 -8 -16 7 -27 19 -13 18 -14 -10 -14 -34 0 -108
-32 -120 -51 -5 -8 -9 -79 -9 -159 0 -161 -10 -197 -63 -224 -41 -21 -98 -30
-107 -16 -5 7 1 9 19 4 16 -4 26 -2 26 5 0 14 -43 14 -56 1 -15 -15 -63 25
-80 66 -27 65 -13 842 17 932 11 34 10 37 -21 62 -25 21 -33 36 -37 72 -3 25
0 63 7 84 12 37 12 38 -23 71 -47 43 -60 42 -55 -2 3 -22 0 -35 -8 -35 -18 0
-93 86 -100 115 -11 43 3 98 31 122 87 75 245 38 321 -76 22 -34 26 -50 26
-120 0 -44 -3 -84 -5 -88 -13 -21 -25 -259 -14 -270 10 -9 28 38 34 88 5 40
14 61 44 95 37 43 59 95 59 141 0 14 17 33 50 57 61 44 74 69 150 291 33 97
71 198 84 223 l23 45 19 -27 c10 -15 34 -47 52 -72 17 -24 32 -55 32 -68 0
-27 14 -35 52 -31 29 3 29 1 -4 -102 -25 -79 -21 -102 20 -126 51 -30 76 -25
139 29 92 76 300 283 356 353 64 80 98 101 161 101 43 0 53 -4 88 -40z m-5250
-387 c40 -24 72 -84 63 -120 -3 -15 -28 -49 -55 -76 -40 -40 -53 -47 -72 -42
-34 11 -43 22 -29 39 19 23 -23 9 -45 -15 -14 -16 -16 -30 -10 -86 14 -126 14
-126 -16 -137 -37 -13 -103 8 -135 42 -24 26 -25 30 -21 142 4 93 9 123 26
157 24 47 75 91 124 110 43 16 131 9 170 -14z m3108 1 c0 -8 -4 -12 -10 -9 -5
3 -10 10 -10 16 0 5 5 9 10 9 6 0 10 -7 10 -16z m77 -331 c-3 -10 -5 -4 -5 12
0 17 2 24 5 18 2 -7 2 -21 0 -30z m-58 -836 c-3 -95 -2 -244 1 -331 8 -166 4
-206 -24 -248 -28 -43 -93 -61 -137 -38 -30 16 -23 30 16 30 19 0 35 5 35 11
0 6 9 9 20 6 11 -3 18 -2 15 3 -2 4 4 15 15 25 33 29 23 39 -11 11 -33 -28
-86 -35 -108 -13 -11 10 -13 9 -8 -6 4 -10 3 -16 -2 -13 -13 9 -14 250 0 294
9 31 8 45 -4 75 -16 37 -16 37 -64 30 -36 -5 -59 -16 -92 -44 -24 -21 -69 -55
-100 -76 -31 -20 -57 -40 -59 -45 -7 -17 -19 -7 -17 14 1 13 26 51 56 85 40
45 61 62 81 62 14 1 28 4 30 9 2 4 42 44 90 89 53 50 98 84 117 88 23 5 31 12
31 28 0 11 20 39 45 64 25 23 45 49 45 57 0 9 7 12 18 10 16 -5 17 -19 11
-177z m-3733 -99 c-3 -17 -11 -74 -17 -126 -11 -87 -10 -99 12 -170 14 -48 23
-105 23 -150 1 -72 0 -74 -36 -108 -52 -47 -102 -48 -152 0 -43 40 -44 56 -15
169 17 65 22 114 23 234 l1 153 25 0 c14 0 45 7 70 14 69 22 73 21 66 -16z
m4882 -15 c13 -16 21 -23 18 -16 -3 6 -2 14 4 18 14 9 17 -19 31 -271 10 -187
9 -235 -1 -254 -17 -31 -35 -50 -49 -50 -6 0 -11 -4 -11 -10 0 -16 -73 -12
-97 5 -12 8 -29 35 -39 60 -21 57 -15 106 28 211 35 86 39 133 24 262 l-9 72
38 0 c28 0 44 -7 63 -27z m-4672 -135 l29 -31 -32 23 c-18 13 -33 27 -33 32 0
13 5 10 36 -24z m2598 13 c13 -5 16 -10 9 -14 -7 -4 -14 -3 -18 3 -14 23 -25
7 -25 -35 0 -38 -3 -45 -20 -45 -17 0 -20 7 -20 39 0 22 -5 42 -12 44 -10 4
-10 6 -1 6 6 1 15 -3 18 -9 10 -16 25 -12 19 5 -7 16 17 19 50 6z m-3595 -40
c-11 -31 -39 -50 -39 -27 0 8 7 17 17 20 14 6 14 8 -3 21 -18 14 -18 14 8 15
25 0 26 -2 17 -29z m3937 -3 c11 -11 17 -32 16 -49 -1 -17 1 -28 6 -25 4 2 7
-11 7 -30 -1 -19 2 -37 7 -40 11 -7 10 -197 -2 -228 -5 -14 -17 -26 -25 -26
-9 0 -29 -7 -45 -15 -31 -16 -76 -7 -93 18 -4 7 -6 -3 -5 -23 3 -35 3 -35 61
-40 32 -3 60 -3 63 -1 16 16 55 9 69 -12 17 -27 19 -133 2 -154 -6 -9 -39 -13
-99 -13 -82 0 -91 2 -115 26 -27 27 -27 33 -7 191 3 29 3 81 -1 118 -8 82 -46
128 -112 140 -24 4 -43 8 -43 10 0 14 50 54 70 57 15 2 26 11 28 23 5 24 49
74 77 85 11 5 43 8 72 8 39 0 56 -5 69 -20z m-3996 2 c0 -5 -4 -10 -9 -10 -6
0 -13 5 -16 10 -3 6 1 10 9 10 9 0 16 -4 16 -10z m3669 -172 c-83 -50 -163
-76 -175 -56 -4 6 -3 8 4 4 6 -3 13 -2 16 3 3 5 21 12 39 15 18 3 51 15 72 26
21 11 41 18 43 15 3 -3 3 -6 1 -7z m548 -75 c-2 -16 -4 -3 -4 27 0 30 2 43 4
28 2 -16 2 -40 0 -55z m-930 3 c86 -5 97 -10 81 -36 -7 -10 -16 -16 -21 -13
-4 3 -29 -13 -55 -34 -26 -22 -62 -45 -80 -51 -18 -6 -46 -20 -61 -32 -38 -26
-50 -25 -90 8 -24 20 -34 38 -37 65 -3 20 -9 48 -14 63 -6 14 -10 29 -10 34 0
8 87 7 287 -4z m-540 -118 c-3 -8 -6 -5 -6 6 -1 11 2 17 5 13 3 -3 4 -12 1
-19z m136 -172 c92 -21 204 -71 186 -82 -8 -5 -85 -10 -173 -12 -154 -4 -158
-4 -152 15 4 11 7 38 8 59 1 51 3 54 36 44 15 -4 58 -15 95 -24z m720 -36 l57
0 0 -31 0 -32 -92 7 c-50 3 -126 6 -170 6 -43 0 -78 4 -78 8 0 21 154 55 205
46 11 -2 46 -4 78 -4z m1322 -146 c9 -4 32 -37 50 -75 32 -62 40 -71 90 -95
31 -14 65 -39 77 -55 24 -32 48 -38 48 -13 0 9 28 44 63 78 34 33 74 77 89 96
32 43 82 60 182 60 70 0 74 -1 80 -24 3 -13 6 -209 6 -435 0 -391 -1 -412 -19
-430 -11 -11 -29 -24 -40 -31 -12 -6 -21 -17 -21 -25 0 -10 -11 -15 -35 -15
-23 0 -35 5 -35 14 0 7 -13 23 -30 36 l-30 23 0 121 -1 121 -19 -24 c-20 -23
-20 -23 -20 -2 0 12 -3 21 -6 21 -3 0 -29 -20 -56 -45 -47 -42 -54 -45 -108
-45 -83 0 -125 21 -163 82 -30 47 -32 49 -38 27 -4 -13 -7 -90 -8 -171 l-1
-148 -52 0 c-78 0 -128 11 -128 26 0 8 -4 14 -9 14 -22 0 -33 848 -13 887 12
21 32 27 104 31 14 1 34 -1 43 -4z m-348 -42 c23 -12 48 -22 56 -22 20 0 72
-68 87 -114 15 -48 8 -322 -10 -376 -41 -122 -78 -137 -336 -142 l-111 -1 -7
-81 c-3 -45 -6 -107 -6 -139 l0 -58 -67 3 -67 3 -11 45 -11 45 -109 3 c-86 2
-113 6 -129 20 -10 9 -62 75 -114 145 -94 127 -95 128 -116 110 -11 -10 -23
-19 -26 -21 -3 -2 -9 -58 -15 -125 l-10 -122 -92 -3 -93 -3 1 343 c1 189 4
370 8 403 l6 60 94 3 93 3 -3 -156 c-2 -85 -2 -155 1 -154 3 0 64 70 135 154
l130 154 98 1 c70 0 107 5 129 16 44 23 149 33 313 30 122 -2 145 -5 182 -24z
m-1478 -22 c61 -11 166 -62 216 -103 l35 -28 -61 -68 -61 -69 -44 25 c-25 14
-69 32 -99 39 -96 25 -183 -13 -224 -99 -50 -104 2 -248 104 -287 65 -26 183
-2 238 47 17 16 22 13 90 -55 82 -82 85 -66 -33 -146 -85 -58 -162 -80 -255
-74 -145 9 -282 106 -348 245 -28 59 -32 81 -35 165 -3 86 -1 103 21 151 31
69 131 175 199 212 49 27 134 52 184 54 12 1 45 -3 73 -9z m-1737 -15 c31 -8
88 -29 127 -46 l71 -32 -47 -51 c-27 -28 -55 -62 -64 -75 -13 -21 -17 -23 -39
-11 -72 38 -209 52 -248 24 -48 -34 -18 -73 73 -95 270 -63 350 -123 348 -263
-1 -75 -21 -125 -74 -176 -61 -59 -134 -83 -249 -84 -146 0 -238 33 -354 131
-36 30 -37 32 -18 42 15 8 62 65 98 119 1 2 24 -10 50 -27 123 -75 269 -92
306 -37 23 34 -2 51 -141 90 -169 48 -258 111 -282 198 -14 53 -7 97 26 164
46 95 140 143 280 144 45 0 106 -7 137 -15z m1183 -367 c-1 -211 -3 -393 -4
-406 -1 -22 -3 -23 -103 -20 l-103 3 1 385 c0 212 3 393 7 403 5 15 21 17 105
17 l100 0 -3 -382z m-283 290 c-2 -46 -8 -87 -12 -92 -5 -4 -58 -11 -119 -14
l-111 -5 -2 -301 -3 -301 -100 0 -100 0 -3 303 -2 302 -98 0 c-63 0 -102 4
-110 12 -13 13 -17 159 -5 171 3 4 156 7 338 7 l332 0 -5 -82z m-79 -849 c28
-13 37 -47 37 -146 0 -35 4 -63 10 -63 13 0 13 -37 0 -45 -16 -10 -40 -74 -40
-108 0 -22 9 -38 31 -56 52 -44 71 -169 34 -227 -13 -20 -53 -34 -97 -34 -11
0 -35 16 -53 36 -32 34 -35 35 -51 20 -15 -16 -17 -16 -30 2 -10 15 -11 76 -5
310 4 161 11 296 17 301 19 19 114 25 147 10z m1966 -3 l286 -1 3 -315 c2
-300 -5 -401 -28 -415 -5 -3 -5 9 1 27 11 41 12 61 0 54 -5 -3 -12 2 -16 11
-5 14 -10 9 -24 -23 -20 -45 -73 -94 -101 -94 -10 0 -21 -4 -24 -9 -7 -10 17
-21 45 -21 27 0 23 -19 -7 -30 -52 -20 -127 17 -163 81 -27 48 -28 59 -16 304
l8 170 -27 32 c-15 18 -25 36 -22 41 2 4 1 14 -4 22 -7 11 -13 9 -28 -11 -12
-14 -17 -28 -12 -34 5 -7 -1 -23 -16 -42 -30 -39 -79 -51 -135 -34 -62 19 -69
38 -69 179 l0 124 32 -7 c17 -4 160 -8 317 -9z m-1266 -7 c13 -8 73 -11 168
-10 133 2 147 1 154 -16 4 -10 9 -147 12 -305 5 -218 3 -288 -6 -288 -6 0 -16
-10 -21 -22 -8 -21 -9 -21 -9 -3 -1 16 -6 13 -31 -17 -50 -60 -85 -76 -175
-79 l-80 -3 -22 45 c-12 24 -23 67 -24 94 -4 97 1 615 7 615 3 0 15 -5 27 -11z
m-1613 -24 c0 -8 7 -15 15 -15 9 0 12 6 9 15 -9 23 72 21 84 -2 15 -29 36
-213 33 -290 -2 -72 -93 -126 -139 -83 -12 12 -20 26 -16 31 3 6 -2 16 -12 24
-17 12 -20 11 -25 -8 -5 -22 -5 -22 -19 3 -23 41 -18 174 9 240 13 30 27 65
32 78 10 25 29 30 29 7z m3963 -2 c26 -16 50 -101 53 -188 2 -49 1 -82 -2 -72
-3 9 -9 17 -14 17 -5 0 -11 8 -13 18 -4 13 -5 12 -6 -5 0 -12 -5 -25 -11 -28
-5 -3 -10 -14 -10 -24 0 -27 -92 -65 -135 -57 -26 5 -36 14 -44 38 -18 52 -13
171 10 235 11 32 23 64 25 72 3 11 19 12 71 7 36 -4 71 -10 76 -13z m-3153
-608 c11 -13 10 -14 -4 -9 -9 3 -16 10 -16 15 0 13 6 11 20 -6z"/>
<path d="M5055 5549 c-22 -4 -89 -8 -150 -9 -60 -1 -103 -4 -95 -7 8 -2 25 -9
37 -15 16 -8 46 -8 105 0 103 15 154 15 179 2 21 -12 26 2 7 17 -22 17 -42 20
-83 12z"/>
<path d="M3310 4550 c-113 -24 -220 -111 -277 -228 -25 -52 -28 -67 -28 -163
0 -101 1 -108 38 -181 72 -146 188 -221 342 -222 101 -1 170 29 254 109 138
132 172 307 91 471 -77 157 -256 248 -420 214z m72 -170 c40 -40 40 -40 36
-105 -3 -51 -9 -70 -28 -91 -36 -38 -73 -54 -126 -54 -40 0 -51 5 -84 38 -49
49 -59 98 -31 155 27 56 90 97 149 97 38 0 50 -5 84 -40z m181 -291 c27 -33
22 -85 -12 -120 -37 -36 -70 -37 -105 -3 -46 47 -33 125 24 147 26 10 74 -2
93 -24z"/>
<path d="M4465 4536 c-66 -21 -103 -44 -158 -100 -102 -104 -145 -244 -114
-372 31 -124 105 -210 236 -273 66 -31 85 -36 146 -35 148 2 255 75 327 222
39 77 43 94 46 171 4 102 -16 167 -79 254 -70 99 -168 148 -293 146 -39 0 -89
-6 -111 -13z m73 -146 c39 -24 72 -75 72 -113 0 -82 -59 -137 -148 -137 -48 0
-58 4 -88 34 -30 30 -34 40 -34 87 0 49 3 55 44 95 41 38 61 49 106 53 8 0 30
-8 48 -19z m167 -282 c58 -26 71 -103 26 -149 -37 -36 -70 -37 -105 -3 -43 44
-33 134 17 154 30 12 32 12 62 -2z"/>
<path d="M3400 3583 c-8 -3 -27 -17 -42 -31 -76 -70 14 -228 199 -352 263
-176 555 -168 838 23 175 118 247 256 178 337 -26 32 -28 32 -92 26 -36 -3
-115 -10 -176 -15 -212 -19 -632 -12 -845 13 -25 3 -52 3 -60 -1z"/>
<path d="M3040 2936 c0 -2 7 -7 16 -10 8 -3 12 -2 9 4 -6 10 -25 14 -25 6z"/>
<path d="M3272 2627 c-18 -42 -14 -68 4 -34 8 16 13 36 11 45 -3 13 -7 10 -15
-11z"/>
<path d="M1265 4440 c4 -6 11 -8 16 -5 14 9 11 15 -7 15 -8 0 -12 -5 -9 -10z"/>
<path d="M1492 3977 c-34 -20 -55 -55 -56 -99 -1 -33 5 -45 32 -69 35 -31 47
-34 87 -19 66 25 94 98 58 150 -35 51 -74 63 -121 37z"/>
<path d="M1035 3888 c-23 -27 -26 -39 -22 -77 9 -79 68 -110 142 -75 40 19 60
61 51 108 -9 48 -47 76 -101 76 -36 0 -48 -5 -70 -32z"/>
<path d="M1484 3689 c-27 -31 -93 -59 -139 -59 -25 0 -63 11 -99 30 -65 32
-91 29 -102 -14 -12 -48 61 -115 148 -136 121 -30 268 53 268 152 0 48 -43 63
-76 27z"/>
<path d="M6364 3946 c-31 -31 -36 -41 -30 -68 9 -44 31 -75 68 -94 61 -31 148
20 148 87 0 45 -55 99 -107 106 -39 5 -46 2 -79 -31z"/>
<path d="M6792 3903 c-40 -19 -66 -65 -57 -100 10 -41 50 -73 90 -73 98 0 148
85 88 149 -35 37 -78 46 -121 24z"/>
<path d="M6447 3654 c-4 -4 -7 -20 -7 -36 0 -21 5 -28 19 -28 10 0 39 -11 62
-25 33 -18 59 -25 102 -25 74 0 112 19 127 66 16 48 4 60 -46 44 -36 -12 -201
-8 -237 5 -7 3 -16 2 -20 -1z"/>
<path d="M6144 2897 c3 -22 1 -35 -4 -32 -6 4 -7 -2 -3 -11 4 -11 8 -13 11 -6
2 7 8 10 12 7 5 -3 5 6 0 22 -16 53 -20 58 -16 20z"/>
<path d="M5961 2850 c16 -24 39 -38 39 -23 0 4 -13 17 -28 28 l-27 19 16 -24z"/>
<path d="M6065 2800 c-3 -6 1 -7 9 -4 18 7 21 14 7 14 -6 0 -13 -4 -16 -10z"/>
<path d="M6088 2763 c7 -3 16 -2 19 1 4 3 -2 6 -13 5 -11 0 -14 -3 -6 -6z"/>
<path d="M2170 4119 c0 -5 5 -7 10 -4 6 3 10 8 10 11 0 2 -4 4 -10 4 -5 0 -10
-5 -10 -11z"/>
<path d="M2133 4098 c-13 -6 -23 -15 -23 -20 0 -5 11 -1 25 8 37 24 35 30 -2
12z"/>
<path d="M1416 2467 c-5 -22 4 -41 11 -21 2 6 16 9 31 6 30 -5 29 -3 -9 21
-26 15 -27 15 -33 -6z"/>
<path d="M6470 2525 c-1 -16 -3 -40 -4 -53 -2 -13 1 -25 4 -27 12 -7 18 43 10
78 l-8 32 -2 -30z"/>
<path d="M6320 2492 c0 -14 37 -58 43 -52 3 3 -6 18 -19 33 -13 15 -24 24 -24
19z"/>
<path d="M4729 2258 c-16 -20 -39 -33 -65 -38 -37 -7 -38 -8 -7 -9 17 0 34 -5
38 -10 5 -9 43 25 83 73 11 14 10 16 -5 15 -10 0 -29 -14 -44 -31z"/>
<path d="M4700 1893 c-41 -47 -96 -111 -122 -141 -27 -30 -48 -62 -48 -70 0
-16 84 -133 160 -222 26 -30 61 -77 78 -103 l31 -49 -6 284 c-3 156 -8 307
-12 335 l-6 53 -75 -87z"/>
<path d="M5052 1767 c-31 -33 -29 -57 6 -57 38 0 129 28 138 42 12 19 -27 38
-76 38 -36 0 -52 -5 -68 -23z"/>
<path d="M5113 1033 c-8 -3 -13 -25 -13 -59 0 -67 16 -63 25 7 8 54 7 59 -12
52z"/>
<path d="M4710 885 c-10 -13 -9 -15 9 -15 11 0 21 4 21 9 0 18 -18 21 -30 6z"/>
</g>
</svg>
